<svg height="512" viewBox="0 0 128 128" width="512" xmlns="http://www.w3.org/2000/svg"><g><path d="m116.989 30.765-10.448 51.214h-62.047l-10.448-51.214z" fill="#f9cc4e"/><rect fill="#f95050" height="7.454" rx="3.727" width="92.352" x="29.342" y="23.312"/><path d="m44.5 81.979 2.684 13.157h56.544a2.818 2.818 0 0 0 2.818-2.818 2.818 2.818 0 0 0 -2.818-2.818h-51.828l-1.54-7.521z" fill="#4ec4b5"/><rect fill="#4ec4b5" height="5.636" rx="2.818" width="34.025" x="6.306" y="6.306"/><circle cx="54.013" cy="112.175" fill="#f95050" r="9.518"/><circle cx="97.022" cy="112.175" fill="#f95050" r="9.518"/><circle cx="97.022" cy="112.175" fill="#e2e8ed" r="3.676"/><circle cx="54.013" cy="112.175" fill="#e2e8ed" r="3.676"/><path d="m38.4 23.31h-5.33a4.529 4.529 0 0 0 -.5.034l-.043.006-2.317-11.41h5.87z" fill="#4ec4b5"/><g fill="#142850"><path d="m108.256 82.328 10.167-49.836a5.474 5.474 0 0 0 -.456-10.93h-10.195a1.75 1.75 0 0 0 0 3.5h10.195a1.977 1.977 0 0 1 0 3.954h-84.9a1.977 1.977 0 0 1 0-3.954h53.312a1.75 1.75 0 0 0 0-3.5h-46.554l-1.62-7.94a4.558 4.558 0 0 0 -.691-9.065h-28.389a4.568 4.568 0 1 0 0 9.135h19.651l1.736 8.508a5.471 5.471 0 0 0 2.1 10.293l10.168 49.835 2.684 13.157a1.75 1.75 0 0 0 1.715 1.4h13.908a1.75 1.75 0 1 0 0-3.5h-12.479l-1.97-9.657h2.293l1.249 6.122a1.751 1.751 0 0 0 1.715 1.4h51.828a1.068 1.068 0 1 1 0 2.136h-34.959a1.75 1.75 0 1 0 0 3.5h34.959a4.568 4.568 0 1 0 0-9.136h-50.4l-.82-4.021h54.037a1.751 1.751 0 0 0 1.716-1.401zm-100.199-73.203a1.069 1.069 0 0 1 1.068-1.068h28.389a1.068 1.068 0 1 1 0 2.135h-28.389a1.069 1.069 0 0 1 -1.068-1.067zm26.589 4.567 1.606 7.87h-2.3l-1.605-7.87zm15.724 66.537a.086.086 0 0 0 -.016 0h-4.43l-9.735-47.713h78.657l-9.734 47.713z"/><path d="m101.294 42.89h-51.553a1.75 1.75 0 0 0 0 3.5h51.553a1.75 1.75 0 0 0 0-3.5z"/><path d="m95.036 25.062h4.5a1.75 1.75 0 0 0 0-3.5h-4.5a1.75 1.75 0 0 0 0 3.5z"/><path d="m54.013 100.907a11.268 11.268 0 1 0 11.268 11.268 11.281 11.281 0 0 0 -11.268-11.268zm0 19.036a7.768 7.768 0 1 1 7.768-7.768 7.777 7.777 0 0 1 -7.768 7.768z"/><path d="m97.022 100.907a11.268 11.268 0 1 0 11.269 11.268 11.281 11.281 0 0 0 -11.269-11.268zm0 19.036a7.768 7.768 0 1 1 7.769-7.768 7.777 7.777 0 0 1 -7.769 7.768z"/><path d="m97.022 106.749a5.426 5.426 0 1 0 5.426 5.426 5.432 5.432 0 0 0 -5.426-5.426zm0 7.352a1.926 1.926 0 1 1 1.926-1.926 1.928 1.928 0 0 1 -1.926 1.925z"/><path d="m54.013 106.749a5.426 5.426 0 1 0 5.426 5.426 5.432 5.432 0 0 0 -5.426-5.426zm0 7.352a1.926 1.926 0 1 1 1.926-1.926 1.928 1.928 0 0 1 -1.926 1.925z"/><path d="m99.452 54.622h-47.869a1.75 1.75 0 0 0 0 3.5h47.869a1.75 1.75 0 0 0 0-3.5z"/><path d="m97.464 66.354h-43.893a1.75 1.75 0 0 0 0 3.5h43.893a1.75 1.75 0 0 0 0-3.5z"/></g></g></svg>